<svg width="156" height="27" viewBox="0 0 156 27" fill="none" xmlns="http://www.w3.org/2000/svg">
<g clip-path="url(#clip0_158_193)">
<path d="M27.1486 2.0304V24.9696C27.1486 26.0901 26.3162 27 25.291 27H14.2685C14.807 26.8056 15.3257 26.5734 15.8198 26.2899C17.4008 25.3854 18.6335 24.1245 19.5179 22.5072C20.4022 20.8899 20.8444 19.0431 20.8444 16.9695C20.8444 14.8959 20.4121 13.0545 19.5475 11.4372C19.5475 11.4345 19.545 11.4345 19.545 11.4318C19.3252 11.0187 19.0806 10.6299 18.8138 10.2627C18.0381 9.1935 17.0673 8.3241 15.9038 7.6491C14.3401 6.7446 12.5615 6.291 10.5704 6.291H2.44556V2.0304C2.44556 0.9099 3.27805 0 4.30323 0H25.291C26.3162 0 27.1486 0.9099 27.1486 2.0304Z" fill="#6B39A7"/>
<path d="M16.3485 16.9992C16.3485 18.2817 16.1064 19.4211 15.6247 20.4174C15.1405 21.4137 14.4661 22.1913 13.5991 22.7502C12.7344 23.3118 11.7611 23.5899 10.6841 23.5899H6.69207C6.54879 21.9024 6.08437 18.8811 4.3428 15.6816C2.90014 13.0302 1.15857 11.3184 0 10.3491H4.39962C5.09625 11.0754 5.87686 12.0528 6.56608 13.3164C6.60808 13.3947 6.65007 13.473 6.69207 13.5513C7.87782 15.8382 8.2039 17.9685 8.30765 19.1808C8.30765 18.2358 8.42869 15.7005 10.0492 13.3164C10.8348 12.1635 11.7636 11.3481 12.685 10.7703C12.9617 10.8864 13.231 11.0241 13.4879 11.1888C14.1153 11.5857 14.6465 12.096 15.0837 12.7224C15.269 12.9789 15.432 13.257 15.5827 13.5513C15.6988 13.7835 15.8026 14.0211 15.8915 14.2641C16.1953 15.0984 16.3485 16.0083 16.3485 16.9992Z" fill="#6B39A7"/>
<path d="M46.049 4.72223C47.5312 5.58083 48.6824 6.77693 49.5025 8.30783C50.3227 9.84143 50.7327 11.591 50.7327 13.5566C50.7327 15.5222 50.3128 17.2745 49.4753 18.8054C48.6379 20.339 47.4694 21.5351 45.97 22.391C44.4705 23.2496 42.7586 23.6789 40.8367 23.6789H33.1367V3.43433H40.9972C42.8846 3.43433 44.5693 3.86363 46.0515 4.72223H46.049ZM43.8653 19.0403C44.6854 18.5111 45.3252 17.774 45.7847 16.829C46.2442 15.884 46.4739 14.804 46.4739 13.589C46.4739 12.374 46.2318 11.2859 45.7452 10.3193C45.261 9.35543 44.599 8.60753 43.7615 8.07833C42.9241 7.54913 41.9755 7.28183 40.9157 7.28183H37.3165V19.8341H41.101C42.1237 19.8341 43.0451 19.5695 43.8653 19.0376V19.0403Z" fill="#6B39A7"/>
<path d="M63.818 8.95863C64.9741 9.61473 65.8683 10.5408 66.5032 11.7342C67.1381 12.9303 67.4567 14.3181 67.4567 15.9003C67.4567 17.4825 67.1381 18.846 66.5032 20.0502C65.8683 21.2544 64.9716 22.1913 63.818 22.8555C62.6619 23.5197 61.3353 23.8545 59.8358 23.8545C58.3363 23.8545 56.9826 23.5224 55.8265 22.8555C54.6704 22.1913 53.7762 21.2544 53.1413 20.0502C52.5064 18.846 52.1877 17.4609 52.1877 15.9003C52.1877 14.3397 52.5064 12.9303 53.1413 11.7342C53.7762 10.5381 54.6704 9.61203 55.8265 8.95863C56.9826 8.30253 58.3191 7.97583 59.8358 7.97583C61.3526 7.97583 62.6619 8.30523 63.818 8.95863ZM57.2544 12.8628C56.5923 13.6539 56.2613 14.6853 56.2613 15.957C56.2613 17.2287 56.5923 18.2601 57.2544 19.0512C57.9164 19.8423 58.7761 20.2365 59.8334 20.2365C60.8906 20.2365 61.7256 19.8423 62.3877 19.0512C63.0497 18.2601 63.3807 17.2287 63.3807 15.957C63.3807 14.6853 63.0497 13.6539 62.3877 12.8628C61.7256 12.0717 60.8758 11.6775 59.8334 11.6775C58.7909 11.6775 57.9139 12.0717 57.2544 12.8628Z" fill="#6B39A7"/>
<path d="M81.4955 10.1466C82.6861 11.5938 83.2815 13.608 83.2815 16.1919C83.2815 16.6536 83.2716 17.0127 83.2543 17.2611H73.0396C73.2693 18.2439 73.709 19.0107 74.3637 19.5615C75.0158 20.1123 75.8014 20.385 76.7179 20.385C77.3873 20.385 78.0321 20.2446 78.6497 19.9665C79.2672 19.6884 79.8231 19.278 80.3171 18.738L82.4613 21.1086C81.7375 21.9969 80.8606 22.6746 79.828 23.1471C78.7954 23.6196 77.6442 23.8545 76.3745 23.8545C74.875 23.8545 73.5658 23.5278 72.4442 22.8717C71.3227 22.2156 70.4606 21.2922 69.8504 20.0961C69.2427 18.9 68.9364 17.523 68.9364 15.9597C68.9364 14.3964 69.2452 12.9843 69.8628 11.7801C70.4803 10.5759 71.345 9.63903 72.4566 8.97483C73.5682 8.31063 74.838 7.97583 76.2683 7.97583C78.5607 7.97583 80.3048 8.69943 81.4955 10.1439V10.1466ZM79.4451 14.6286C79.4105 13.608 79.1091 12.7872 78.5459 12.1689C77.9802 11.5533 77.2317 11.2428 76.2955 11.2428C75.4136 11.2428 74.6774 11.5452 74.087 12.1527C73.4966 12.7602 73.1211 13.5837 72.963 14.6259H79.4476L79.4451 14.6286Z" fill="#6B39A7"/>
<path d="M97.2141 7.81641C96.3594 7.34391 95.4973 7.10901 94.6351 7.10901C93.5951 7.10901 92.6416 7.38981 91.777 7.94871C90.9124 8.50761 90.233 9.26901 89.739 10.2329C89.2449 11.1968 88.9979 12.2687 88.9979 13.4432C88.9979 14.6177 89.2449 15.695 89.739 16.667C90.233 17.6417 90.9124 18.4112 91.777 18.9809C92.6416 19.5506 93.5927 19.8341 94.6351 19.8341C95.4652 19.8341 96.3075 19.6181 97.1623 19.1834C98.017 18.7487 98.7803 18.1655 99.4522 17.4338L101.913 20.3552C100.925 21.473 99.7635 22.3613 98.432 23.0174C97.1005 23.6735 95.7641 24.0002 94.4227 24.0002C92.6046 24.0002 90.9569 23.5412 89.4747 22.6259C87.9925 21.7106 86.829 20.4524 85.9816 18.8513C85.1343 17.2502 84.7119 15.4682 84.7119 13.4999C84.7119 11.5316 85.1442 9.78741 86.0088 8.20791C86.8734 6.62571 88.0592 5.38371 89.5685 4.47651C91.0779 3.56931 92.7478 3.11841 94.5833 3.11841C95.9246 3.11841 97.2463 3.42081 98.5531 4.02831C99.8574 4.63581 100.969 5.45931 101.888 6.50151L99.4522 9.77121C98.8174 8.94231 98.0713 8.29161 97.2166 7.81911L97.2141 7.81641Z" fill="#6B39A7"/>
<path d="M115.314 10.1466C116.505 11.5938 117.1 13.608 117.1 16.1919C117.1 16.6536 117.09 17.0127 117.073 17.2611H106.858C107.088 18.2439 107.528 19.0107 108.182 19.5615C108.834 20.1123 109.62 20.385 110.536 20.385C111.206 20.385 111.851 20.2446 112.468 19.9665C113.086 19.6884 113.642 19.278 114.136 18.738L116.28 21.1086C115.556 21.9969 114.679 22.6746 113.646 23.1471C112.614 23.6196 111.463 23.8545 110.193 23.8545C108.694 23.8545 107.384 23.5278 106.263 22.8717C105.141 22.2156 104.279 21.2922 103.669 20.0961C103.061 18.9 102.755 17.523 102.755 15.9597C102.755 14.3964 103.064 12.9843 103.681 11.7801C104.299 10.5759 105.163 9.63903 106.275 8.97483C107.387 8.31063 108.656 7.97583 110.087 7.97583C112.379 7.97583 114.123 8.69943 115.314 10.1439V10.1466ZM113.264 14.6286C113.229 13.608 112.928 12.7872 112.364 12.1689C111.799 11.5533 111.05 11.2428 110.114 11.2428C109.232 11.2428 108.496 11.5452 107.905 12.1527C107.315 12.7602 106.94 13.5837 106.781 14.6259H113.264V14.6286Z" fill="#6B39A7"/>
<path d="M125.781 8.72903C126.574 8.22683 127.5 7.96763 128.56 7.94873V12.1418C128.419 12.1229 128.207 12.1121 127.925 12.1121C126.673 12.1121 125.679 12.4847 124.948 13.2245C124.217 13.967 123.849 14.9552 123.849 16.1891V23.6789H119.773V8.12153H123.849V10.9268C124.343 9.96293 124.988 9.23123 125.781 8.72903Z" fill="#6B39A7"/>
<path d="M139.592 22.8122C139.064 23.1578 138.476 23.4251 137.833 23.6087C137.189 23.7923 136.541 23.8841 135.889 23.8841C134.565 23.8841 133.491 23.471 132.661 22.6394C131.831 21.8105 131.418 20.6252 131.418 19.0808V11.8799H129.434V8.8127H131.418V4.5332H135.467V8.8127H139.33V11.9069H135.467V18.3275C135.467 19.5236 135.899 20.1203 136.764 20.1203C137.364 20.1203 138.026 19.9286 138.747 19.5425L139.595 22.8122H139.592Z" fill="#6B39A7"/>
<path d="M152.361 8.95863C153.517 9.61473 154.412 10.5408 155.046 11.7342C155.681 12.9303 156 14.3181 156 15.9003C156 17.4825 155.681 18.846 155.046 20.0502C154.412 21.2544 153.515 22.1913 152.361 22.8555C151.205 23.5197 149.879 23.8545 148.379 23.8545C146.88 23.8545 145.526 23.5224 144.37 22.8555C143.214 22.1913 142.319 21.2544 141.684 20.0502C141.05 18.846 140.731 17.4609 140.731 15.9003C140.731 14.3397 141.047 12.9303 141.684 11.7342C142.319 10.5381 143.216 9.61203 144.37 8.95863C145.526 8.30253 146.862 7.97583 148.379 7.97583C149.896 7.97583 151.205 8.30523 152.361 8.95863ZM145.798 12.8628C145.136 13.6539 144.804 14.6853 144.804 15.957C144.804 17.2287 145.136 18.2601 145.798 19.0512C146.46 19.8423 147.319 20.2365 148.377 20.2365C149.434 20.2365 150.269 19.8423 150.931 19.0512C151.593 18.2601 151.924 17.2287 151.924 15.957C151.924 14.6853 151.593 13.6539 150.931 12.8628C150.269 12.0717 149.419 11.6775 148.377 11.6775C147.334 11.6775 146.457 12.0717 145.798 12.8628Z" fill="#6B39A7"/>
</g>
<defs>
<clipPath id="clip0_158_193">
<rect width="156" height="27" fill="white"/>
</clipPath>
</defs>
</svg>
