<svg width="188" height="30" viewBox="0 0 188 30" fill="none" xmlns="http://www.w3.org/2000/svg">
<g clip-path="url(#clip0_12_753)">
<path d="M32.7177 2.256V27.744C32.7177 28.989 31.7144 30 30.4789 30H17.1954C17.8444 29.784 18.4695 29.526 19.065 29.211C20.9703 28.206 22.4558 26.805 23.5216 25.008C24.5874 23.211 25.1202 21.159 25.1202 18.855C25.1202 16.551 24.5993 14.505 23.5573 12.708C23.5573 12.705 23.5543 12.705 23.5543 12.702C23.2894 12.243 22.9946 11.811 22.6731 11.403C21.7383 10.215 20.5684 9.249 19.1662 8.499C17.2817 7.494 15.1382 6.99 12.7387 6.99H2.94727V2.256C2.94727 1.011 3.95053 0 5.186 0H30.4789C31.7144 0 32.7177 1.011 32.7177 2.256Z" fill="white"/>
<path d="M19.702 18.888C19.702 20.313 19.4103 21.579 18.8298 22.686C18.2463 23.793 17.4335 24.657 16.3886 25.278C15.3466 25.902 14.1737 26.211 12.8757 26.211H8.0648C7.89213 24.336 7.33245 20.979 5.23363 17.424C3.49504 14.478 1.39623 12.576 0 11.499H5.30211C6.14163 12.306 7.08238 13.392 7.91297 14.796C7.96358 14.883 8.01419 14.97 8.0648 15.057C9.49378 17.598 9.88675 19.965 10.0118 21.312C10.0118 20.262 10.1577 17.445 12.1106 14.796C13.0573 13.515 14.1767 12.609 15.2871 11.967C15.6205 12.096 15.945 12.249 16.2546 12.432C17.0108 12.873 17.6509 13.44 18.1778 14.136C18.4011 14.421 18.5976 14.73 18.7792 15.057C18.9191 15.315 19.0441 15.579 19.1513 15.849C19.5175 16.776 19.702 17.787 19.702 18.888Z" fill="white"/>
<path d="M55.4951 5.01662C57.2813 5.84727 58.6686 7.00443 59.657 8.48549C60.6453 9.96916 61.1395 11.6618 61.1395 13.5634C61.1395 15.465 60.6334 17.1603 59.6242 18.6413C58.615 20.125 57.2069 21.2822 55.3998 22.1102C53.5927 22.9409 51.5296 23.3562 49.2135 23.3562H39.9341V3.77065H49.407C51.6815 3.77065 53.7118 4.18597 55.498 5.01662H55.4951ZM52.8634 18.8686C53.8517 18.3566 54.6228 17.6435 55.1765 16.7293C55.7302 15.815 56.0071 14.7702 56.0071 13.5948C56.0071 12.4193 55.7154 11.3666 55.1289 10.4315C54.5454 9.49898 53.7475 8.77543 52.7383 8.26346C51.7291 7.75149 50.5859 7.49289 49.3088 7.49289H44.9712V19.6366H49.5321C50.7646 19.6366 51.875 19.3806 52.8634 18.866V18.8686Z" fill="white"/>
<path d="M76.9088 9.11501C78.3021 9.74975 79.3798 10.6457 80.1449 11.8002C80.91 12.9574 81.294 14.3 81.294 15.8307C81.294 17.3614 80.91 18.6805 80.1449 19.8455C79.3798 21.0105 78.2991 21.9169 76.9088 22.5595C75.5156 23.2021 73.9169 23.526 72.1099 23.526C70.3028 23.526 68.6714 23.2047 67.2781 22.5595C65.8849 21.9169 64.8072 21.0105 64.0421 19.8455C63.277 18.6805 62.8929 17.3405 62.8929 15.8307C62.8929 14.3209 63.277 12.9574 64.0421 11.8002C64.8072 10.6431 65.8849 9.74713 67.2781 9.11501C68.6714 8.48026 70.282 8.1642 72.1099 8.1642C73.9378 8.1642 75.5156 8.48288 76.9088 9.11501ZM68.9989 12.8921C68.201 13.6575 67.8021 14.6553 67.8021 15.8856C67.8021 17.1159 68.201 18.1137 68.9989 18.879C69.7967 19.6444 70.8327 20.0258 72.1069 20.0258C73.3811 20.0258 74.3873 19.6444 75.1851 18.879C75.983 18.1137 76.3819 17.1159 76.3819 15.8856C76.3819 14.6553 75.983 13.6575 75.1851 12.8921C74.3873 12.1268 73.3632 11.7454 72.1069 11.7454C70.8506 11.7454 69.7937 12.1268 68.9989 12.8921Z" fill="white"/>
<path d="M98.2125 10.2643C99.6475 11.6644 100.365 13.613 100.365 16.1128C100.365 16.5595 100.353 16.9069 100.332 17.1472H88.0221C88.299 18.098 88.8289 18.8399 89.6178 19.3727C90.4038 19.9056 91.3505 20.1694 92.4549 20.1694C93.2617 20.1694 94.0387 20.0336 94.783 19.7645C95.5272 19.4955 96.1971 19.0985 96.7925 18.576L99.3766 20.8695C98.5043 21.7288 97.4474 22.3845 96.203 22.8416C94.9586 23.2987 93.5713 23.526 92.0411 23.526C90.2341 23.526 88.6562 23.2099 87.3047 22.5752C85.9531 21.9404 84.9141 21.0471 84.1788 19.8899C83.4464 18.7328 83.0773 17.4006 83.0773 15.8882C83.0773 14.3758 83.4494 13.0097 84.1937 11.8447C84.9379 10.6797 85.9799 9.77326 87.3196 9.13068C88.6592 8.4881 90.1894 8.1642 91.9131 8.1642C94.6758 8.1642 96.7776 8.86424 98.2125 10.2617V10.2643ZM95.7416 14.6004C95.6999 13.613 95.3367 12.819 94.6579 12.2208C93.9762 11.6252 93.0742 11.3248 91.9459 11.3248C90.8831 11.3248 89.9959 11.6174 89.2844 12.2051C88.5729 12.7928 88.1204 13.5895 87.9298 14.5978H95.7446L95.7416 14.6004Z" fill="white"/>
<path d="M117.156 8.01009C116.125 7.55297 115.086 7.32571 114.048 7.32571C112.794 7.32571 111.645 7.59737 110.603 8.13808C109.561 8.67878 108.742 9.4154 108.147 10.3479C107.552 11.2804 107.254 12.3174 107.254 13.4537C107.254 14.59 107.552 15.6322 108.147 16.5726C108.742 17.5155 109.561 18.26 110.603 18.8111C111.645 19.3623 112.791 19.6366 114.048 19.6366C115.048 19.6366 116.063 19.4276 117.093 19.007C118.123 18.5865 119.043 18.0223 119.853 17.3144L122.818 20.1407C121.627 21.2221 120.228 22.0815 118.623 22.7162C117.019 23.351 115.408 23.667 113.791 23.667C111.6 23.667 109.615 23.223 107.828 22.3375C106.042 21.452 104.64 20.2347 103.619 18.6857C102.598 17.1368 102.089 15.4128 102.089 13.5086C102.089 11.6043 102.61 9.91692 103.652 8.38884C104.694 6.85815 106.123 5.65658 107.942 4.77891C109.761 3.90125 111.773 3.46503 113.985 3.46503C115.602 3.46503 117.194 3.75758 118.769 4.34531C120.341 4.93303 121.681 5.72972 122.788 6.73799L119.853 9.90125C119.088 9.09933 118.189 8.46981 117.159 8.0127L117.156 8.01009Z" fill="white"/>
<path d="M138.968 10.2643C140.403 11.6644 141.121 13.613 141.121 16.1128C141.121 16.5595 141.109 16.9069 141.088 17.1472H128.778C129.055 18.098 129.585 18.8399 130.374 19.3727C131.16 19.9056 132.106 20.1694 133.211 20.1694C134.017 20.1694 134.794 20.0336 135.539 19.7645C136.283 19.4955 136.953 19.0985 137.548 18.576L140.132 20.8695C139.26 21.7288 138.203 22.3845 136.959 22.8416C135.714 23.2987 134.327 23.526 132.797 23.526C130.99 23.526 129.412 23.2099 128.06 22.5752C126.709 21.9404 125.67 21.0471 124.935 19.8899C124.202 18.7328 123.833 17.4006 123.833 15.8882C123.833 14.3758 124.205 13.0097 124.949 11.8447C125.694 10.6797 126.736 9.77326 128.075 9.13068C129.415 8.4881 130.945 8.1642 132.669 8.1642C135.432 8.1642 137.533 8.86424 138.968 10.2617V10.2643ZM136.497 14.6004C136.456 13.613 136.092 12.819 135.414 12.2208C134.732 11.6252 133.83 11.3248 132.702 11.3248C131.639 11.3248 130.752 11.6174 130.04 12.2051C129.329 12.7928 128.876 13.5895 128.686 14.5978H136.497V14.6004Z" fill="white"/>
<path d="M151.582 8.89297C152.538 8.40712 153.654 8.15636 154.931 8.13808V12.1947C154.761 12.1764 154.505 12.1659 154.166 12.1659C152.657 12.1659 151.46 12.5264 150.579 13.2421C149.697 13.9605 149.254 14.9165 149.254 16.1102V23.3562H144.342V8.30525H149.254V11.0192C149.849 10.0867 150.626 9.37883 151.582 8.89297Z" fill="white"/>
<path d="M168.227 22.5177C167.589 22.8521 166.881 23.1107 166.107 23.2883C165.33 23.4659 164.55 23.5547 163.764 23.5547C162.168 23.5547 160.873 23.1551 159.873 22.3505C158.873 21.5486 158.376 20.4019 158.376 18.9078V11.9413H155.985V8.97395H158.376V4.83377H163.255V8.97395H167.911V11.9674H163.255V18.179C163.255 19.3362 163.776 19.9134 164.818 19.9134C165.541 19.9134 166.339 19.728 167.208 19.3544L168.23 22.5177H168.227Z" fill="white"/>
<path d="M183.615 9.11501C185.008 9.74975 186.086 10.6457 186.851 11.8002C187.616 12.9574 188 14.3 188 15.8307C188 17.3614 187.616 18.6805 186.851 19.8455C186.086 21.0105 185.005 21.9169 183.615 22.5595C182.222 23.2021 180.623 23.526 178.816 23.526C177.009 23.526 175.377 23.2047 173.984 22.5595C172.591 21.9169 171.513 21.0105 170.748 19.8455C169.983 18.6805 169.599 17.3405 169.599 15.8307C169.599 14.3209 169.98 12.9574 170.748 11.8002C171.513 10.6431 172.594 9.74713 173.984 9.11501C175.377 8.48026 176.988 8.1642 178.816 8.1642C180.644 8.1642 182.222 8.48288 183.615 9.11501ZM175.705 12.8921C174.907 13.6575 174.508 14.6553 174.508 15.8856C174.508 17.1159 174.907 18.1137 175.705 18.879C176.503 19.6444 177.539 20.0258 178.813 20.0258C180.087 20.0258 181.093 19.6444 181.891 18.879C182.689 18.1137 183.088 17.1159 183.088 15.8856C183.088 14.6553 182.689 13.6575 181.891 12.8921C181.093 12.1268 180.069 11.7454 178.813 11.7454C177.557 11.7454 176.5 12.1268 175.705 12.8921Z" fill="white"/>
</g>
<defs>
<clipPath id="clip0_12_753">
<rect width="188" height="30" fill="white"/>
</clipPath>
</defs>
</svg>
